M48
; DRILL file {KiCad 7.0.7} date Sun Mar 24 16:17:59 2024
; FORMAT={-:-/ absolute / inch / decimal}
; #@! TF.CreationDate,2024-03-24T16:17:59-04:00
; #@! TF.GenerationSoftware,Kicad,Pcbnew,7.0.7
; #@! TF.FileFunction,Plated,1,2,PTH
FMAT,2
INCH
; #@! TA.AperFunction,Plated,PTH,ViaDrill
T1C0.0157
; #@! TA.AperFunction,Plated,PTH,ComponentDrill
T2C0.0197
; #@! TA.AperFunction,Plated,PTH,ComponentDrill
T3C0.0394
; #@! TA.AperFunction,Plated,PTH,ComponentDrill
T4C0.0591
%
G90
G05
T1
X5.5591Y-3.4409
X5.7913Y-3.4409
X6.0591Y-3.4409
X6.2638Y-3.4409
T2
X5.5724Y-3.376
X5.6232Y-3.3528
X5.6744Y-3.3752
X5.7256Y-3.352
X5.7768Y-3.3752
X5.8283Y-3.3512
X5.8791Y-3.3748
X5.9303Y-3.3516
X5.9823Y-3.3744
X6.0331Y-3.3512
X6.0846Y-3.3744
X6.1358Y-3.3508
X6.187Y-3.3744
X6.2378Y-3.3508
T3
X5.6492Y-3.6366
X5.778Y-3.6374
X6.161Y-3.637
T4
X5.3791Y-3.5008
X6.4079Y-3.4965
T0
M30
