%TF.GenerationSoftware,KiCad,Pcbnew,7.0.7*%
%TF.CreationDate,2024-03-24T16:17:57-04:00*%
%TF.ProjectId,AkiraFlex,416b6972-6146-46c6-9578-2e6b69636164,rev?*%
%TF.SameCoordinates,Original*%
%TF.FileFunction,Legend,Top*%
%TF.FilePolarity,Positive*%
%FSLAX46Y46*%
G04 Gerber Fmt 4.6, Leading zero omitted, Abs format (unit mm)*
G04 Created by KiCad (PCBNEW 7.0.7) date 2024-03-24 16:17:57*
%MOMM*%
%LPD*%
G01*
G04 APERTURE LIST*
%ADD10C,0.150000*%
%ADD11C,0.120000*%
G04 APERTURE END LIST*
D10*
G36*
X148992725Y-92697255D02*
G01*
X148719979Y-92697255D01*
X148681559Y-92424826D01*
X148293872Y-92424826D01*
X148173217Y-92697255D01*
X147880467Y-92697255D01*
X148099804Y-92241937D01*
X148370711Y-92241937D01*
X148659651Y-92241937D01*
X148590115Y-91733912D01*
X148586622Y-91733912D01*
X148370711Y-92241937D01*
X148099804Y-92241937D01*
X148491367Y-91429097D01*
X148773004Y-91429097D01*
X148992725Y-92697255D01*
G37*
G36*
X149540439Y-91441798D02*
G01*
X149302620Y-91441798D01*
X149121636Y-92689000D01*
X149362948Y-92689000D01*
X149427086Y-92279404D01*
X149726821Y-92689000D01*
X150012267Y-92689000D01*
X149703007Y-92253685D01*
X150030683Y-91858696D01*
X149726821Y-91858696D01*
X149430579Y-92217171D01*
X149427086Y-92213361D01*
X149540439Y-91441798D01*
G37*
G36*
X150407892Y-91858696D02*
G01*
X150162770Y-91858696D01*
X150045607Y-92689000D01*
X150290729Y-92689000D01*
X150407892Y-91858696D01*
G37*
G36*
X150447899Y-91630720D02*
G01*
X150447008Y-91615239D01*
X150444333Y-91600549D01*
X150439876Y-91586650D01*
X150433636Y-91573542D01*
X150425612Y-91561224D01*
X150415806Y-91549697D01*
X150411385Y-91545308D01*
X150399571Y-91535246D01*
X150386951Y-91526890D01*
X150373525Y-91520238D01*
X150359292Y-91515293D01*
X150344254Y-91512053D01*
X150328409Y-91510518D01*
X150321845Y-91510381D01*
X150308842Y-91510942D01*
X150293300Y-91513219D01*
X150278548Y-91517249D01*
X150264587Y-91523030D01*
X150251416Y-91530563D01*
X150239037Y-91539848D01*
X150231988Y-91546260D01*
X150221469Y-91557738D01*
X150212733Y-91569944D01*
X150205779Y-91582879D01*
X150200609Y-91596542D01*
X150197221Y-91610934D01*
X150195617Y-91626055D01*
X150195474Y-91632307D01*
X150196342Y-91647727D01*
X150198947Y-91662434D01*
X150203288Y-91676428D01*
X150209365Y-91689708D01*
X150217179Y-91702275D01*
X150226729Y-91714130D01*
X150231036Y-91718672D01*
X150242667Y-91728916D01*
X150255135Y-91737425D01*
X150268440Y-91744197D01*
X150282582Y-91749232D01*
X150297562Y-91752532D01*
X150313379Y-91754094D01*
X150319940Y-91754233D01*
X150332953Y-91753678D01*
X150348536Y-91751420D01*
X150363359Y-91747427D01*
X150377423Y-91741696D01*
X150390726Y-91734230D01*
X150403270Y-91725027D01*
X150410432Y-91718672D01*
X150419213Y-91709449D01*
X150428544Y-91697209D01*
X150436044Y-91684178D01*
X150441716Y-91670356D01*
X150445557Y-91655744D01*
X150447570Y-91640341D01*
X150447899Y-91630720D01*
G37*
G36*
X150867337Y-91858061D02*
G01*
X150624120Y-91858061D01*
X150519975Y-92693762D01*
X150765097Y-92693762D01*
X150825425Y-92200025D01*
X150833318Y-92186208D01*
X150841440Y-92173175D01*
X150849790Y-92160926D01*
X150858367Y-92149461D01*
X150867174Y-92138780D01*
X150876208Y-92128882D01*
X150885470Y-92119768D01*
X150894961Y-92111438D01*
X150907006Y-92102200D01*
X150919128Y-92094527D01*
X150931328Y-92088420D01*
X150943606Y-92083879D01*
X150955960Y-92080904D01*
X150970889Y-92079401D01*
X150973387Y-92079369D01*
X150987621Y-92080768D01*
X151001904Y-92084966D01*
X151016237Y-92091961D01*
X151027019Y-92099044D01*
X151037830Y-92107700D01*
X151048668Y-92117931D01*
X151059533Y-92129735D01*
X151070427Y-92143114D01*
X151081349Y-92158066D01*
X151088646Y-92168909D01*
X151203904Y-91932360D01*
X151193550Y-91919733D01*
X151183444Y-91908050D01*
X151173586Y-91897309D01*
X151163976Y-91887510D01*
X151154615Y-91878655D01*
X151143261Y-91868911D01*
X151132295Y-91860639D01*
X151128018Y-91857743D01*
X151115188Y-91850190D01*
X151102180Y-91844199D01*
X151088993Y-91839772D01*
X151075628Y-91836906D01*
X151062084Y-91835604D01*
X151057529Y-91835517D01*
X151042646Y-91836370D01*
X151027762Y-91838928D01*
X151012879Y-91843192D01*
X151000972Y-91847830D01*
X150989065Y-91853560D01*
X150977158Y-91860382D01*
X150965251Y-91868295D01*
X150962274Y-91870444D01*
X150950298Y-91879736D01*
X150938024Y-91890309D01*
X150928623Y-91899078D01*
X150919055Y-91908567D01*
X150909319Y-91918776D01*
X150899416Y-91929705D01*
X150889346Y-91941355D01*
X150879108Y-91953724D01*
X150868702Y-91966813D01*
X150858129Y-91980622D01*
X150854637Y-91976812D01*
X150867337Y-91858061D01*
G37*
G36*
X151815685Y-91855863D02*
G01*
X151830072Y-91855993D01*
X151844135Y-91856235D01*
X151857874Y-91856589D01*
X151871290Y-91857054D01*
X151884382Y-91857631D01*
X151897150Y-91858319D01*
X151913671Y-91859410D01*
X151929616Y-91860700D01*
X151944986Y-91862189D01*
X151952591Y-91863015D01*
X151968189Y-91864860D01*
X151984303Y-91866964D01*
X152000933Y-91869325D01*
X152013744Y-91871266D01*
X152026845Y-91873351D01*
X152040237Y-91875582D01*
X152053918Y-91877958D01*
X152067890Y-91880479D01*
X152082152Y-91883145D01*
X151957686Y-92700748D01*
X151719867Y-92700748D01*
X151730980Y-92623909D01*
X151722995Y-92629989D01*
X151711138Y-92638690D01*
X151699427Y-92646889D01*
X151687860Y-92654586D01*
X151676439Y-92661780D01*
X151665163Y-92668472D01*
X151654032Y-92674662D01*
X151639416Y-92682133D01*
X151625059Y-92688712D01*
X151610959Y-92694397D01*
X151596934Y-92699309D01*
X151582641Y-92703566D01*
X151568080Y-92707167D01*
X151553251Y-92710114D01*
X151538154Y-92712406D01*
X151522789Y-92714044D01*
X151507156Y-92715026D01*
X151491256Y-92715353D01*
X151475469Y-92714942D01*
X151460020Y-92713706D01*
X151444908Y-92711647D01*
X151430134Y-92708765D01*
X151415697Y-92705059D01*
X151401597Y-92700529D01*
X151387835Y-92695176D01*
X151374410Y-92689000D01*
X151361382Y-92682019D01*
X151348810Y-92674414D01*
X151336695Y-92666183D01*
X151325036Y-92657327D01*
X151313834Y-92647846D01*
X151303088Y-92637741D01*
X151292798Y-92627010D01*
X151282965Y-92615653D01*
X151273628Y-92603702D01*
X151264827Y-92591185D01*
X151256562Y-92578102D01*
X151248832Y-92564454D01*
X151241639Y-92550240D01*
X151234981Y-92535461D01*
X151228859Y-92520116D01*
X151223272Y-92504205D01*
X151220735Y-92496017D01*
X151217235Y-92483539D01*
X151214104Y-92470827D01*
X151211341Y-92457880D01*
X151208947Y-92444698D01*
X151206921Y-92431283D01*
X151205263Y-92417633D01*
X151203974Y-92403748D01*
X151203053Y-92389629D01*
X151202501Y-92375276D01*
X151202384Y-92366086D01*
X151449344Y-92366086D01*
X151449375Y-92370640D01*
X151449855Y-92383936D01*
X151451388Y-92400814D01*
X151453943Y-92416720D01*
X151457520Y-92431653D01*
X151462119Y-92445614D01*
X151467740Y-92458602D01*
X151474383Y-92470618D01*
X151482048Y-92481662D01*
X151486276Y-92486737D01*
X151495335Y-92495905D01*
X151507789Y-92505524D01*
X151521499Y-92513096D01*
X151533371Y-92517680D01*
X151546047Y-92520954D01*
X151559526Y-92522919D01*
X151573810Y-92523574D01*
X151579071Y-92523502D01*
X151592420Y-92522693D01*
X151606047Y-92520984D01*
X151619954Y-92518376D01*
X151634140Y-92514869D01*
X151648605Y-92510463D01*
X151663349Y-92505158D01*
X151675167Y-92500331D01*
X151686806Y-92495057D01*
X151698266Y-92489337D01*
X151709548Y-92483170D01*
X151720651Y-92476557D01*
X151731575Y-92469497D01*
X151742321Y-92461991D01*
X151752889Y-92454038D01*
X151809724Y-92059048D01*
X151796798Y-92059048D01*
X151784005Y-92059048D01*
X151778806Y-92059048D01*
X151765589Y-92059048D01*
X151757909Y-92059092D01*
X151742907Y-92059439D01*
X151728380Y-92060134D01*
X151714330Y-92061175D01*
X151700756Y-92062565D01*
X151687659Y-92064301D01*
X151671957Y-92066960D01*
X151656999Y-92070161D01*
X151651189Y-92071568D01*
X151636882Y-92075583D01*
X151622886Y-92080312D01*
X151609199Y-92085754D01*
X151595822Y-92091909D01*
X151582756Y-92098777D01*
X151570000Y-92106358D01*
X151563446Y-92110867D01*
X151550785Y-92120739D01*
X151538719Y-92131753D01*
X151527249Y-92143908D01*
X151519037Y-92153773D01*
X151511160Y-92164280D01*
X151503618Y-92175429D01*
X151496410Y-92187219D01*
X151489538Y-92199652D01*
X151483000Y-92212726D01*
X151478925Y-92221660D01*
X151473304Y-92235223D01*
X151468275Y-92248982D01*
X151463838Y-92262937D01*
X151459993Y-92277086D01*
X151456739Y-92291431D01*
X151454077Y-92305971D01*
X151452006Y-92320707D01*
X151450527Y-92335638D01*
X151449639Y-92350764D01*
X151449344Y-92366086D01*
X151202384Y-92366086D01*
X151202316Y-92360688D01*
X151202584Y-92342297D01*
X151203388Y-92324194D01*
X151204727Y-92306378D01*
X151206603Y-92288850D01*
X151209014Y-92271610D01*
X151211961Y-92254658D01*
X151215444Y-92237993D01*
X151219462Y-92221616D01*
X151224017Y-92205527D01*
X151229107Y-92189726D01*
X151234733Y-92174212D01*
X151240894Y-92158986D01*
X151247592Y-92144048D01*
X151254825Y-92129398D01*
X151262595Y-92115035D01*
X151270900Y-92100960D01*
X151279698Y-92087177D01*
X151288948Y-92073768D01*
X151298650Y-92060734D01*
X151308803Y-92048074D01*
X151319408Y-92035789D01*
X151330464Y-92023879D01*
X151341971Y-92012343D01*
X151353930Y-92001181D01*
X151366340Y-91990394D01*
X151379202Y-91979982D01*
X151392516Y-91969944D01*
X151406280Y-91960281D01*
X151420497Y-91950993D01*
X151435164Y-91942079D01*
X151450284Y-91933539D01*
X151465854Y-91925374D01*
X151475232Y-91920661D01*
X151489341Y-91913926D01*
X151503500Y-91907593D01*
X151517709Y-91901662D01*
X151531968Y-91896133D01*
X151546278Y-91891006D01*
X151560638Y-91886280D01*
X151575048Y-91881956D01*
X151589508Y-91878035D01*
X151604019Y-91874515D01*
X151618579Y-91871397D01*
X151633444Y-91868616D01*
X151648867Y-91866109D01*
X151664849Y-91863876D01*
X151681388Y-91861916D01*
X151698485Y-91860229D01*
X151716141Y-91858816D01*
X151734355Y-91857677D01*
X151753127Y-91856811D01*
X151765951Y-91856385D01*
X151779024Y-91856081D01*
X151792345Y-91855899D01*
X151805914Y-91855838D01*
X151815685Y-91855863D01*
G37*
G36*
X153105188Y-91451006D02*
G01*
X152389825Y-91451006D01*
X152208841Y-92694715D01*
X152477777Y-92694715D01*
X152554616Y-92160653D01*
X152942302Y-92160653D01*
X152971514Y-91957443D01*
X152583827Y-91957443D01*
X152624152Y-91663106D01*
X153074071Y-91663106D01*
X153105188Y-91451006D01*
G37*
G36*
X153502718Y-91441798D02*
G01*
X153261406Y-91441798D01*
X153082327Y-92689000D01*
X153325544Y-92689000D01*
X153502718Y-91441798D01*
G37*
G36*
X154021993Y-91838472D02*
G01*
X154036737Y-91838980D01*
X154051206Y-91839923D01*
X154065402Y-91841301D01*
X154079325Y-91843115D01*
X154092974Y-91845365D01*
X154106350Y-91848049D01*
X154119452Y-91851169D01*
X154132281Y-91854725D01*
X154144836Y-91858715D01*
X154157117Y-91863141D01*
X154161168Y-91864689D01*
X154173102Y-91869576D01*
X154188512Y-91876655D01*
X154203346Y-91884380D01*
X154217604Y-91892750D01*
X154231287Y-91901764D01*
X154244395Y-91911423D01*
X154256927Y-91921728D01*
X154268883Y-91932677D01*
X154271779Y-91935494D01*
X154282949Y-91947140D01*
X154293455Y-91959392D01*
X154303295Y-91972249D01*
X154312471Y-91985711D01*
X154320982Y-91999779D01*
X154328828Y-92014451D01*
X154336009Y-92029729D01*
X154340959Y-92041585D01*
X154344073Y-92049613D01*
X154348368Y-92061847D01*
X154352211Y-92074309D01*
X154355602Y-92087000D01*
X154358540Y-92099920D01*
X154361027Y-92113068D01*
X154363061Y-92126446D01*
X154364643Y-92140052D01*
X154365774Y-92153888D01*
X154366452Y-92167952D01*
X154366678Y-92182244D01*
X154366670Y-92186305D01*
X154366527Y-92200088D01*
X154366202Y-92213202D01*
X154365606Y-92227371D01*
X154364773Y-92240667D01*
X154363909Y-92250691D01*
X154362225Y-92263346D01*
X154359812Y-92277033D01*
X154357162Y-92289587D01*
X154353977Y-92302900D01*
X153810708Y-92302900D01*
X153810708Y-92321316D01*
X153810904Y-92332125D01*
X153811933Y-92347795D01*
X153813843Y-92362812D01*
X153816636Y-92377175D01*
X153820310Y-92390886D01*
X153824866Y-92403943D01*
X153830304Y-92416348D01*
X153836624Y-92428099D01*
X153843826Y-92439198D01*
X153851910Y-92449643D01*
X153860875Y-92459436D01*
X153867338Y-92465511D01*
X153877605Y-92473888D01*
X153888559Y-92481384D01*
X153900199Y-92487998D01*
X153912525Y-92493730D01*
X153925538Y-92498580D01*
X153939237Y-92502548D01*
X153953623Y-92505635D01*
X153968695Y-92507839D01*
X153984454Y-92509162D01*
X154000900Y-92509603D01*
X154009837Y-92509510D01*
X154023420Y-92509022D01*
X154037216Y-92508115D01*
X154051223Y-92506789D01*
X154065442Y-92505045D01*
X154079874Y-92502882D01*
X154094517Y-92500301D01*
X154109373Y-92497301D01*
X154124441Y-92493882D01*
X154139720Y-92490045D01*
X154155212Y-92485789D01*
X154165565Y-92482742D01*
X154180922Y-92477906D01*
X154196073Y-92472751D01*
X154211017Y-92467279D01*
X154225754Y-92461488D01*
X154240285Y-92455380D01*
X154254610Y-92448953D01*
X154268728Y-92442208D01*
X154282639Y-92435144D01*
X154296344Y-92427763D01*
X154309842Y-92420064D01*
X154264120Y-92637562D01*
X154254530Y-92641160D01*
X154240201Y-92646357D01*
X154225939Y-92651314D01*
X154211744Y-92656032D01*
X154197616Y-92660509D01*
X154183554Y-92664746D01*
X154169560Y-92668743D01*
X154155633Y-92672500D01*
X154141772Y-92676017D01*
X154127979Y-92679294D01*
X154114253Y-92682332D01*
X154100621Y-92685112D01*
X154087113Y-92687619D01*
X154073727Y-92689853D01*
X154060464Y-92691812D01*
X154047323Y-92693499D01*
X154034306Y-92694912D01*
X154021411Y-92696052D01*
X154008639Y-92696918D01*
X153991801Y-92697647D01*
X153975181Y-92697890D01*
X153963388Y-92697780D01*
X153945978Y-92697200D01*
X153928903Y-92696124D01*
X153912163Y-92694551D01*
X153895757Y-92692481D01*
X153879687Y-92689915D01*
X153863951Y-92686851D01*
X153848550Y-92683291D01*
X153833485Y-92679235D01*
X153818754Y-92674681D01*
X153804357Y-92669631D01*
X153794957Y-92666006D01*
X153781178Y-92660219D01*
X153767784Y-92654013D01*
X153754774Y-92647389D01*
X153742150Y-92640346D01*
X153729912Y-92632885D01*
X153718058Y-92625005D01*
X153706589Y-92616707D01*
X153695505Y-92607990D01*
X153684807Y-92598854D01*
X153674494Y-92589300D01*
X153667843Y-92582666D01*
X153658230Y-92572401D01*
X153649053Y-92561755D01*
X153640310Y-92550730D01*
X153632004Y-92539326D01*
X153624132Y-92527542D01*
X153616696Y-92515378D01*
X153609695Y-92502835D01*
X153603129Y-92489912D01*
X153596999Y-92476610D01*
X153591304Y-92462928D01*
X153587767Y-92453605D01*
X153582889Y-92439336D01*
X153578524Y-92424727D01*
X153574673Y-92409778D01*
X153571336Y-92394488D01*
X153568512Y-92378857D01*
X153566201Y-92362886D01*
X153564404Y-92346575D01*
X153563120Y-92329923D01*
X153562350Y-92312930D01*
X153562093Y-92295598D01*
X153562228Y-92283738D01*
X153562938Y-92266125D01*
X153564256Y-92248724D01*
X153566183Y-92231536D01*
X153568717Y-92214559D01*
X153571861Y-92197795D01*
X153575612Y-92181242D01*
X153579972Y-92164902D01*
X153581281Y-92160653D01*
X153845317Y-92160653D01*
X154121556Y-92160653D01*
X154122753Y-92153238D01*
X154124413Y-92140332D01*
X154124584Y-92138639D01*
X154125366Y-92125727D01*
X154125237Y-92119409D01*
X154123786Y-92104243D01*
X154120722Y-92089976D01*
X154116046Y-92076609D01*
X154109758Y-92064141D01*
X154101857Y-92052572D01*
X154092344Y-92041903D01*
X154088153Y-92037904D01*
X154077122Y-92029036D01*
X154065301Y-92021780D01*
X154052689Y-92016137D01*
X154039286Y-92012106D01*
X154025092Y-92009687D01*
X154010108Y-92008881D01*
X153996366Y-92009474D01*
X153983084Y-92011252D01*
X153970261Y-92014217D01*
X153957896Y-92018367D01*
X153945991Y-92023702D01*
X153934544Y-92030224D01*
X153923556Y-92037931D01*
X153913027Y-92046824D01*
X153902957Y-92056903D01*
X153893346Y-92068167D01*
X153884194Y-92080617D01*
X153875501Y-92094253D01*
X153867267Y-92109074D01*
X153859491Y-92125082D01*
X153852175Y-92142275D01*
X153845317Y-92160653D01*
X153581281Y-92160653D01*
X153584940Y-92148774D01*
X153590517Y-92132858D01*
X153596702Y-92117154D01*
X153601171Y-92106838D01*
X153608260Y-92091676D01*
X153615813Y-92076889D01*
X153623828Y-92062475D01*
X153632307Y-92048435D01*
X153641250Y-92034769D01*
X153650655Y-92021477D01*
X153660524Y-92008559D01*
X153670856Y-91996015D01*
X153681651Y-91983845D01*
X153692909Y-91972049D01*
X153700651Y-91964374D01*
X153712571Y-91953252D01*
X153724859Y-91942599D01*
X153737516Y-91932415D01*
X153750541Y-91922700D01*
X153763934Y-91913454D01*
X153777696Y-91904676D01*
X153791826Y-91896367D01*
X153806325Y-91888528D01*
X153821191Y-91881156D01*
X153836427Y-91874254D01*
X153846750Y-91869909D01*
X153862397Y-91863918D01*
X153878239Y-91858557D01*
X153894277Y-91853827D01*
X153910511Y-91849727D01*
X153926939Y-91846259D01*
X153943563Y-91843420D01*
X153960383Y-91841213D01*
X153977397Y-91839636D01*
X153994607Y-91838690D01*
X154012013Y-91838375D01*
X154021993Y-91838472D01*
G37*
G36*
X155434801Y-91858696D02*
G01*
X155134748Y-91858696D01*
X154939159Y-92101913D01*
X154814692Y-91858696D01*
X154542264Y-91858696D01*
X154779766Y-92253685D01*
X154386681Y-92689000D01*
X154697529Y-92689000D01*
X154911535Y-92429272D01*
X155046796Y-92689000D01*
X155317637Y-92689000D01*
X155069023Y-92282897D01*
X155434801Y-91858696D01*
G37*
D11*
%TO.C,RN3*%
X158470000Y-89800000D02*
X158470000Y-89000000D01*
X155030000Y-89800000D02*
X155030000Y-89000000D01*
%TO.C,C3*%
X153140000Y-89610580D02*
X153140000Y-89329420D01*
X154160000Y-89610580D02*
X154160000Y-89329420D01*
%TO.C,RN1*%
X145470000Y-89800000D02*
X145470000Y-89000000D01*
X142030000Y-89800000D02*
X142030000Y-89000000D01*
%TO.C,RN2*%
X152210000Y-89800000D02*
X152210000Y-89000000D01*
X148770000Y-89800000D02*
X148770000Y-89000000D01*
%TO.C,C4*%
X159540000Y-89610580D02*
X159540000Y-89329420D01*
X160560000Y-89610580D02*
X160560000Y-89329420D01*
%TO.C,C2*%
X146590000Y-89610580D02*
X146590000Y-89329420D01*
X147610000Y-89610580D02*
X147610000Y-89329420D01*
%TO.C,C1*%
X139940000Y-89610580D02*
X139940000Y-89329420D01*
X140960000Y-89610580D02*
X140960000Y-89329420D01*
%TD*%
M02*
