%TF.GenerationSoftware,KiCad,Pcbnew,7.0.7*%
%TF.CreationDate,2024-03-24T16:17:56-04:00*%
%TF.ProjectId,AkiraFlex,416b6972-6146-46c6-9578-2e6b69636164,rev?*%
%TF.SameCoordinates,Original*%
%TF.FileFunction,Copper,L2,Bot*%
%TF.FilePolarity,Positive*%
%FSLAX46Y46*%
G04 Gerber Fmt 4.6, Leading zero omitted, Abs format (unit mm)*
G04 Created by KiCad (PCBNEW 7.0.7) date 2024-03-24 16:17:56*
%MOMM*%
%LPD*%
G01*
G04 APERTURE LIST*
%TA.AperFunction,ComponentPad*%
%ADD10C,1.400000*%
%TD*%
%TA.AperFunction,ComponentPad*%
%ADD11C,0.800000*%
%TD*%
%TA.AperFunction,ComponentPad*%
%ADD12R,2.150000X2.300000*%
%TD*%
%TA.AperFunction,ViaPad*%
%ADD13C,0.800000*%
%TD*%
G04 APERTURE END LIST*
D10*
%TO.P,TP15,1,1*%
%TO.N,VTERM*%
X143490000Y-92370000D03*
%TD*%
D11*
%TO.P,TP12,1,1*%
%TO.N,Net-(RN3-R1)*%
X158440000Y-85110000D03*
%TD*%
%TO.P,TP2,1,1*%
%TO.N,Net-(RN1-R3)*%
X142830000Y-85160000D03*
%TD*%
D10*
%TO.P,TP17,1,1*%
%TO.N,VREF*%
X146760000Y-92390000D03*
%TD*%
D11*
%TO.P,TP1,1,1*%
%TO.N,Net-(RN1-R4)*%
X141540000Y-85750000D03*
%TD*%
%TO.P,TP5,1,1*%
%TO.N,Net-(RN2-R4)*%
X148040000Y-85120000D03*
%TD*%
%TO.P,TP18,1,1*%
%TO.N,VREF*%
X146730000Y-85730000D03*
%TD*%
D10*
%TO.P,TP16,1,1*%
%TO.N,VTERM*%
X156490000Y-92380000D03*
%TD*%
D11*
%TO.P,TP6,1,1*%
%TO.N,Net-(RN2-R3)*%
X149330000Y-85720000D03*
%TD*%
%TO.P,TP3,1,1*%
%TO.N,Net-(RN1-R2)*%
X144130000Y-85730000D03*
%TD*%
%TO.P,TP10,1,1*%
%TO.N,Net-(RN3-R3)*%
X155850000Y-85110000D03*
%TD*%
%TO.P,TP7,1,1*%
%TO.N,Net-(RN2-R2)*%
X151950000Y-85710000D03*
%TD*%
%TO.P,TP9,1,1*%
%TO.N,Net-(RN3-R4)*%
X154550000Y-85710000D03*
%TD*%
D12*
%TO.P,TP13,1,1*%
%TO.N,GND*%
X136630000Y-88920000D03*
%TD*%
D11*
%TO.P,TP11,1,1*%
%TO.N,Net-(RN3-R2)*%
X157150000Y-85710000D03*
%TD*%
D12*
%TO.P,TP14,1,1*%
%TO.N,GND*%
X162760000Y-88810000D03*
%TD*%
D11*
%TO.P,TP4,1,1*%
%TO.N,Net-(RN1-R1)*%
X145430000Y-85140000D03*
%TD*%
%TO.P,TP8,1,1*%
%TO.N,Net-(RN2-R1)*%
X153240000Y-85120000D03*
%TD*%
%TO.P,REF\u002A\u002A,1*%
%TO.N,N/C*%
X150630000Y-85130000D03*
%TD*%
D13*
%TO.N,GND*%
X141200000Y-87400000D03*
X159100000Y-87400000D03*
X153900000Y-87400000D03*
X147100000Y-87400000D03*
%TD*%
%TA.AperFunction,Conductor*%
%TO.N,GND*%
G36*
X159000671Y-84450576D02*
G01*
X159010944Y-84451733D01*
X159026368Y-84453471D01*
X159116075Y-84465281D01*
X159120851Y-84466418D01*
X159166065Y-84482239D01*
X159166664Y-84482468D01*
X159229978Y-84508693D01*
X159233558Y-84510543D01*
X159277498Y-84538152D01*
X159278408Y-84538785D01*
X159330803Y-84578990D01*
X159331976Y-84580019D01*
X159369979Y-84618022D01*
X159371011Y-84619198D01*
X159383490Y-84635461D01*
X159411209Y-84671585D01*
X159411850Y-84672506D01*
X159439454Y-84716438D01*
X159441306Y-84720023D01*
X159467523Y-84783316D01*
X159467763Y-84783945D01*
X159483577Y-84829138D01*
X159484719Y-84833932D01*
X159496530Y-84923646D01*
X159499424Y-84949329D01*
X159499500Y-84950674D01*
X159499500Y-86556395D01*
X159524596Y-86666347D01*
X159524599Y-86666356D01*
X159573530Y-86767961D01*
X159573533Y-86767967D01*
X159643851Y-86856143D01*
X159643856Y-86856148D01*
X159702639Y-86903026D01*
X159732033Y-86926467D01*
X159833649Y-86975403D01*
X159943607Y-87000500D01*
X159999901Y-87000500D01*
X162399210Y-87000500D01*
X162400778Y-87000603D01*
X162411679Y-87002037D01*
X162418716Y-87002964D01*
X162509441Y-87017333D01*
X162514871Y-87018865D01*
X162553690Y-87034944D01*
X162554507Y-87035321D01*
X162614664Y-87065973D01*
X162618372Y-87068312D01*
X162654974Y-87096398D01*
X162656146Y-87097426D01*
X162702572Y-87143852D01*
X162703603Y-87145027D01*
X162710555Y-87154087D01*
X162731682Y-87181620D01*
X162734025Y-87185334D01*
X162764671Y-87245479D01*
X162765066Y-87246335D01*
X162781133Y-87285128D01*
X162782665Y-87290557D01*
X162797036Y-87381290D01*
X162799397Y-87399223D01*
X162799500Y-87400791D01*
X162799500Y-92199472D01*
X162799454Y-92200518D01*
X162795523Y-92245445D01*
X162782279Y-92379918D01*
X162781577Y-92383778D01*
X162761601Y-92458331D01*
X162731256Y-92558362D01*
X162730040Y-92561538D01*
X162695035Y-92636607D01*
X162694742Y-92637193D01*
X162647822Y-92724975D01*
X162647068Y-92726202D01*
X162597911Y-92796405D01*
X162597357Y-92797135D01*
X162535346Y-92872697D01*
X162534554Y-92873570D01*
X162473570Y-92934554D01*
X162472697Y-92935346D01*
X162397135Y-92997357D01*
X162396405Y-92997911D01*
X162326202Y-93047068D01*
X162324975Y-93047822D01*
X162237193Y-93094742D01*
X162236607Y-93095035D01*
X162161538Y-93130040D01*
X162158362Y-93131256D01*
X162058331Y-93161601D01*
X161983778Y-93181577D01*
X161979918Y-93182279D01*
X161845445Y-93195523D01*
X161800518Y-93199454D01*
X161799472Y-93199500D01*
X156967941Y-93199500D01*
X156950970Y-93192471D01*
X156943941Y-93175500D01*
X156950970Y-93158529D01*
X156953834Y-93156084D01*
X156989680Y-93130040D01*
X157095871Y-93052888D01*
X157222533Y-92912216D01*
X157317179Y-92748284D01*
X157357417Y-92624445D01*
X157375673Y-92568260D01*
X157375673Y-92568258D01*
X157375674Y-92568256D01*
X157395460Y-92380000D01*
X157375674Y-92191744D01*
X157375673Y-92191741D01*
X157375673Y-92191739D01*
X157317182Y-92011724D01*
X157317180Y-92011720D01*
X157317179Y-92011716D01*
X157222533Y-91847784D01*
X157095871Y-91707112D01*
X156956494Y-91605849D01*
X156942737Y-91595854D01*
X156942736Y-91595853D01*
X156942730Y-91595849D01*
X156856266Y-91557352D01*
X156769806Y-91518857D01*
X156769807Y-91518857D01*
X156769803Y-91518856D01*
X156584646Y-91479500D01*
X156395354Y-91479500D01*
X156257244Y-91508856D01*
X156210192Y-91518857D01*
X156037272Y-91595848D01*
X156037262Y-91595854D01*
X155884129Y-91707112D01*
X155757466Y-91847785D01*
X155662822Y-92011713D01*
X155662817Y-92011724D01*
X155604326Y-92191739D01*
X155584540Y-92379999D01*
X155604326Y-92568260D01*
X155662817Y-92748275D01*
X155662822Y-92748286D01*
X155690604Y-92796405D01*
X155757467Y-92912216D01*
X155884129Y-93052888D01*
X155942140Y-93095035D01*
X156026166Y-93156084D01*
X156035764Y-93171746D01*
X156031475Y-93189607D01*
X156015813Y-93199205D01*
X156012059Y-93199500D01*
X147251705Y-93199500D01*
X147234734Y-93192471D01*
X147227705Y-93175500D01*
X147234734Y-93158529D01*
X147237598Y-93156084D01*
X147273444Y-93130040D01*
X147365871Y-93062888D01*
X147492533Y-92922216D01*
X147587179Y-92758284D01*
X147593677Y-92738286D01*
X147645673Y-92578260D01*
X147645673Y-92578258D01*
X147645674Y-92578256D01*
X147665460Y-92390000D01*
X147645674Y-92201744D01*
X147645673Y-92201741D01*
X147645673Y-92201739D01*
X147587182Y-92021724D01*
X147587180Y-92021720D01*
X147587179Y-92021716D01*
X147492533Y-91857784D01*
X147365871Y-91717112D01*
X147212730Y-91605849D01*
X147126266Y-91567352D01*
X147039806Y-91528857D01*
X147039807Y-91528857D01*
X147039803Y-91528856D01*
X146854646Y-91489500D01*
X146665354Y-91489500D01*
X146527244Y-91518856D01*
X146480192Y-91528857D01*
X146307272Y-91605848D01*
X146307262Y-91605854D01*
X146154129Y-91717112D01*
X146027466Y-91857785D01*
X145932822Y-92021713D01*
X145932817Y-92021724D01*
X145874326Y-92201739D01*
X145854540Y-92389999D01*
X145874326Y-92578260D01*
X145932817Y-92758275D01*
X145932820Y-92758283D01*
X145932821Y-92758284D01*
X146027467Y-92922216D01*
X146154129Y-93062888D01*
X146198376Y-93095035D01*
X146282402Y-93156084D01*
X146292000Y-93171746D01*
X146287711Y-93189607D01*
X146272049Y-93199205D01*
X146268295Y-93199500D01*
X143953752Y-93199500D01*
X143936781Y-93192471D01*
X143929752Y-93175500D01*
X143936781Y-93158529D01*
X143941755Y-93154714D01*
X143942722Y-93154154D01*
X143942730Y-93154151D01*
X144095871Y-93042888D01*
X144222533Y-92902216D01*
X144317179Y-92738284D01*
X144354168Y-92624445D01*
X144375673Y-92558260D01*
X144375673Y-92558258D01*
X144375674Y-92558256D01*
X144395460Y-92370000D01*
X144375674Y-92181744D01*
X144375673Y-92181741D01*
X144375673Y-92181739D01*
X144317182Y-92001724D01*
X144317180Y-92001720D01*
X144317179Y-92001716D01*
X144222533Y-91837784D01*
X144095871Y-91697112D01*
X143956494Y-91595849D01*
X143942737Y-91585854D01*
X143942736Y-91585853D01*
X143942730Y-91585849D01*
X143856266Y-91547352D01*
X143769806Y-91508857D01*
X143769807Y-91508857D01*
X143769803Y-91508856D01*
X143584646Y-91469500D01*
X143395354Y-91469500D01*
X143301261Y-91489500D01*
X143210192Y-91508857D01*
X143037272Y-91585848D01*
X143037262Y-91585854D01*
X142884129Y-91697112D01*
X142757466Y-91837785D01*
X142662822Y-92001713D01*
X142662817Y-92001724D01*
X142604326Y-92181739D01*
X142584540Y-92370000D01*
X142604326Y-92558260D01*
X142662817Y-92738275D01*
X142662820Y-92738283D01*
X142662821Y-92738284D01*
X142757467Y-92902216D01*
X142884129Y-93042888D01*
X143037270Y-93154151D01*
X143037273Y-93154152D01*
X143038245Y-93154714D01*
X143049429Y-93169285D01*
X143047034Y-93187497D01*
X143032463Y-93198681D01*
X143026248Y-93199500D01*
X137600528Y-93199500D01*
X137599482Y-93199454D01*
X137554554Y-93195523D01*
X137420080Y-93182279D01*
X137416221Y-93181577D01*
X137341667Y-93161600D01*
X137241636Y-93131256D01*
X137238460Y-93130040D01*
X137163391Y-93095035D01*
X137162805Y-93094742D01*
X137075023Y-93047822D01*
X137073796Y-93047068D01*
X137003593Y-92997911D01*
X137002863Y-92997357D01*
X136927287Y-92935334D01*
X136926428Y-92934554D01*
X136865444Y-92873570D01*
X136864667Y-92872714D01*
X136802635Y-92797127D01*
X136802087Y-92796405D01*
X136752930Y-92726202D01*
X136752180Y-92724982D01*
X136705253Y-92637187D01*
X136704973Y-92636628D01*
X136669957Y-92561535D01*
X136668742Y-92558362D01*
X136668711Y-92558260D01*
X136638403Y-92458349D01*
X136618417Y-92383759D01*
X136617722Y-92379937D01*
X136604482Y-92245519D01*
X136600653Y-92201744D01*
X136600546Y-92200518D01*
X136600500Y-92199472D01*
X136600500Y-87400787D01*
X136600603Y-87399220D01*
X136601176Y-87394862D01*
X136602966Y-87381267D01*
X136617335Y-87290545D01*
X136618860Y-87285140D01*
X136634953Y-87246288D01*
X136635311Y-87245511D01*
X136665979Y-87185324D01*
X136668305Y-87181637D01*
X136696410Y-87145009D01*
X136697418Y-87143860D01*
X136743860Y-87097418D01*
X136745009Y-87096410D01*
X136781637Y-87068305D01*
X136785324Y-87065979D01*
X136845511Y-87035311D01*
X136846288Y-87034953D01*
X136885132Y-87018863D01*
X136890553Y-87017334D01*
X136981269Y-87002965D01*
X136993070Y-87001412D01*
X136999221Y-87000603D01*
X137000789Y-87000500D01*
X140056391Y-87000500D01*
X140056393Y-87000500D01*
X140166351Y-86975403D01*
X140267967Y-86926467D01*
X140356146Y-86856146D01*
X140426467Y-86767967D01*
X140475403Y-86666351D01*
X140500500Y-86556393D01*
X140500500Y-86500000D01*
X140502223Y-85750000D01*
X140934318Y-85750000D01*
X140954956Y-85906763D01*
X140954957Y-85906767D01*
X141015461Y-86052835D01*
X141015464Y-86052841D01*
X141111718Y-86178282D01*
X141237159Y-86274536D01*
X141237164Y-86274538D01*
X141383232Y-86335042D01*
X141383234Y-86335042D01*
X141383238Y-86335044D01*
X141540000Y-86355682D01*
X141696762Y-86335044D01*
X141842841Y-86274536D01*
X141968282Y-86178282D01*
X142064536Y-86052841D01*
X142125044Y-85906762D01*
X142145682Y-85750000D01*
X142125044Y-85593238D01*
X142122991Y-85588282D01*
X142064538Y-85447164D01*
X142064535Y-85447158D01*
X141968282Y-85321718D01*
X141842841Y-85225464D01*
X141842835Y-85225461D01*
X141696767Y-85164957D01*
X141696763Y-85164956D01*
X141659118Y-85160000D01*
X142224318Y-85160000D01*
X142224971Y-85164957D01*
X142244956Y-85316763D01*
X142244957Y-85316767D01*
X142305461Y-85462835D01*
X142305464Y-85462841D01*
X142401718Y-85588282D01*
X142527159Y-85684536D01*
X142527164Y-85684538D01*
X142673232Y-85745042D01*
X142673234Y-85745042D01*
X142673238Y-85745044D01*
X142830000Y-85765682D01*
X142986762Y-85745044D01*
X143023081Y-85730000D01*
X143524318Y-85730000D01*
X143544956Y-85886763D01*
X143544957Y-85886767D01*
X143605461Y-86032835D01*
X143605464Y-86032841D01*
X143701718Y-86158282D01*
X143827159Y-86254536D01*
X143827164Y-86254538D01*
X143973232Y-86315042D01*
X143973234Y-86315042D01*
X143973238Y-86315044D01*
X144130000Y-86335682D01*
X144286762Y-86315044D01*
X144432841Y-86254536D01*
X144558282Y-86158282D01*
X144654536Y-86032841D01*
X144715044Y-85886762D01*
X144735682Y-85730000D01*
X144715044Y-85573238D01*
X144712991Y-85568282D01*
X144654538Y-85427164D01*
X144654535Y-85427158D01*
X144558282Y-85301718D01*
X144432841Y-85205464D01*
X144432835Y-85205461D01*
X144286767Y-85144957D01*
X144286763Y-85144956D01*
X144249118Y-85140000D01*
X144824318Y-85140000D01*
X144824971Y-85144957D01*
X144844956Y-85296763D01*
X144844957Y-85296767D01*
X144905461Y-85442835D01*
X144905464Y-85442841D01*
X145001718Y-85568282D01*
X145127159Y-85664536D01*
X145127164Y-85664538D01*
X145273232Y-85725042D01*
X145273234Y-85725042D01*
X145273238Y-85725044D01*
X145430000Y-85745682D01*
X145549117Y-85730000D01*
X146124318Y-85730000D01*
X146144956Y-85886763D01*
X146144957Y-85886767D01*
X146205461Y-86032835D01*
X146205464Y-86032841D01*
X146301718Y-86158282D01*
X146427159Y-86254536D01*
X146427164Y-86254538D01*
X146573232Y-86315042D01*
X146573234Y-86315042D01*
X146573238Y-86315044D01*
X146730000Y-86335682D01*
X146886762Y-86315044D01*
X147032841Y-86254536D01*
X147158282Y-86158282D01*
X147254536Y-86032841D01*
X147315044Y-85886762D01*
X147335682Y-85730000D01*
X147315044Y-85573238D01*
X147312991Y-85568282D01*
X147254538Y-85427164D01*
X147254535Y-85427158D01*
X147158282Y-85301718D01*
X147032841Y-85205464D01*
X147032835Y-85205461D01*
X146886767Y-85144957D01*
X146886763Y-85144956D01*
X146730000Y-85124318D01*
X146573236Y-85144956D01*
X146573232Y-85144957D01*
X146427164Y-85205461D01*
X146427158Y-85205464D01*
X146301720Y-85301716D01*
X146301716Y-85301720D01*
X146205464Y-85427158D01*
X146205461Y-85427164D01*
X146144957Y-85573232D01*
X146144956Y-85573236D01*
X146124318Y-85730000D01*
X145549117Y-85730000D01*
X145586762Y-85725044D01*
X145732841Y-85664536D01*
X145858282Y-85568282D01*
X145954536Y-85442841D01*
X146015044Y-85296762D01*
X146035682Y-85140000D01*
X146033049Y-85120000D01*
X147434318Y-85120000D01*
X147454956Y-85276763D01*
X147454957Y-85276767D01*
X147515461Y-85422835D01*
X147515464Y-85422841D01*
X147611718Y-85548282D01*
X147737159Y-85644536D01*
X147737164Y-85644538D01*
X147883232Y-85705042D01*
X147883234Y-85705042D01*
X147883238Y-85705044D01*
X148040000Y-85725682D01*
X148083159Y-85720000D01*
X148724318Y-85720000D01*
X148744956Y-85876763D01*
X148744957Y-85876767D01*
X148805461Y-86022835D01*
X148805464Y-86022841D01*
X148901718Y-86148282D01*
X149027159Y-86244536D01*
X149027164Y-86244538D01*
X149173232Y-86305042D01*
X149173234Y-86305042D01*
X149173238Y-86305044D01*
X149330000Y-86325682D01*
X149486762Y-86305044D01*
X149632841Y-86244536D01*
X149758282Y-86148282D01*
X149854536Y-86022841D01*
X149915044Y-85876762D01*
X149935682Y-85720000D01*
X149915044Y-85563238D01*
X149912991Y-85558282D01*
X149854538Y-85417164D01*
X149854535Y-85417158D01*
X149758282Y-85291718D01*
X149632841Y-85195464D01*
X149632835Y-85195461D01*
X149486767Y-85134957D01*
X149486763Y-85134956D01*
X149449118Y-85130000D01*
X150024318Y-85130000D01*
X150044956Y-85286763D01*
X150044957Y-85286767D01*
X150105461Y-85432835D01*
X150105464Y-85432841D01*
X150201718Y-85558282D01*
X150327159Y-85654536D01*
X150327164Y-85654538D01*
X150473232Y-85715042D01*
X150473234Y-85715042D01*
X150473238Y-85715044D01*
X150630000Y-85735682D01*
X150786762Y-85715044D01*
X150798939Y-85710000D01*
X151344318Y-85710000D01*
X151364956Y-85866763D01*
X151364957Y-85866767D01*
X151425461Y-86012835D01*
X151425464Y-86012841D01*
X151521718Y-86138282D01*
X151647159Y-86234536D01*
X151647164Y-86234538D01*
X151793232Y-86295042D01*
X151793234Y-86295042D01*
X151793238Y-86295044D01*
X151950000Y-86315682D01*
X152106762Y-86295044D01*
X152252841Y-86234536D01*
X152378282Y-86138282D01*
X152474536Y-86012841D01*
X152535044Y-85866762D01*
X152555682Y-85710000D01*
X152535044Y-85553238D01*
X152532991Y-85548282D01*
X152474538Y-85407164D01*
X152474535Y-85407158D01*
X152378282Y-85281718D01*
X152252841Y-85185464D01*
X152252835Y-85185461D01*
X152106767Y-85124957D01*
X152106763Y-85124956D01*
X152069118Y-85120000D01*
X152634318Y-85120000D01*
X152654956Y-85276763D01*
X152654957Y-85276767D01*
X152715461Y-85422835D01*
X152715464Y-85422841D01*
X152811718Y-85548282D01*
X152937159Y-85644536D01*
X152937164Y-85644538D01*
X153083232Y-85705042D01*
X153083234Y-85705042D01*
X153083238Y-85705044D01*
X153240000Y-85725682D01*
X153359117Y-85710000D01*
X153944318Y-85710000D01*
X153964956Y-85866763D01*
X153964957Y-85866767D01*
X154025461Y-86012835D01*
X154025464Y-86012841D01*
X154121718Y-86138282D01*
X154247159Y-86234536D01*
X154247164Y-86234538D01*
X154393232Y-86295042D01*
X154393234Y-86295042D01*
X154393238Y-86295044D01*
X154550000Y-86315682D01*
X154706762Y-86295044D01*
X154852841Y-86234536D01*
X154978282Y-86138282D01*
X155074536Y-86012841D01*
X155135044Y-85866762D01*
X155155682Y-85710000D01*
X155135044Y-85553238D01*
X155132991Y-85548282D01*
X155074538Y-85407164D01*
X155074535Y-85407158D01*
X154978282Y-85281718D01*
X154852841Y-85185464D01*
X154852835Y-85185461D01*
X154706767Y-85124957D01*
X154706763Y-85124956D01*
X154593160Y-85110000D01*
X155244318Y-85110000D01*
X155264956Y-85266763D01*
X155264957Y-85266767D01*
X155325461Y-85412835D01*
X155325464Y-85412841D01*
X155421718Y-85538282D01*
X155547159Y-85634536D01*
X155547164Y-85634538D01*
X155693232Y-85695042D01*
X155693234Y-85695042D01*
X155693238Y-85695044D01*
X155850000Y-85715682D01*
X155893159Y-85710000D01*
X156544318Y-85710000D01*
X156564956Y-85866763D01*
X156564957Y-85866767D01*
X156625461Y-86012835D01*
X156625464Y-86012841D01*
X156721718Y-86138282D01*
X156847159Y-86234536D01*
X156847164Y-86234538D01*
X156993232Y-86295042D01*
X156993234Y-86295042D01*
X156993238Y-86295044D01*
X157150000Y-86315682D01*
X157306762Y-86295044D01*
X157452841Y-86234536D01*
X157578282Y-86138282D01*
X157674536Y-86012841D01*
X157735044Y-85866762D01*
X157755682Y-85710000D01*
X157735044Y-85553238D01*
X157732991Y-85548282D01*
X157674538Y-85407164D01*
X157674535Y-85407158D01*
X157578282Y-85281718D01*
X157452841Y-85185464D01*
X157452835Y-85185461D01*
X157306767Y-85124957D01*
X157306763Y-85124956D01*
X157193160Y-85110000D01*
X157834318Y-85110000D01*
X157854956Y-85266763D01*
X157854957Y-85266767D01*
X157915461Y-85412835D01*
X157915464Y-85412841D01*
X158011718Y-85538282D01*
X158137159Y-85634536D01*
X158137164Y-85634538D01*
X158283232Y-85695042D01*
X158283234Y-85695042D01*
X158283238Y-85695044D01*
X158440000Y-85715682D01*
X158596762Y-85695044D01*
X158742841Y-85634536D01*
X158868282Y-85538282D01*
X158964536Y-85412841D01*
X159025044Y-85266762D01*
X159045682Y-85110000D01*
X159025044Y-84953238D01*
X159014262Y-84927209D01*
X158964538Y-84807164D01*
X158964535Y-84807158D01*
X158868282Y-84681718D01*
X158742841Y-84585464D01*
X158742835Y-84585461D01*
X158596767Y-84524957D01*
X158596763Y-84524956D01*
X158487291Y-84510544D01*
X158440000Y-84504318D01*
X158439999Y-84504318D01*
X158283236Y-84524956D01*
X158283232Y-84524957D01*
X158137164Y-84585461D01*
X158137158Y-84585464D01*
X158011720Y-84681716D01*
X158011716Y-84681720D01*
X157915464Y-84807158D01*
X157915461Y-84807164D01*
X157854957Y-84953232D01*
X157854956Y-84953236D01*
X157834318Y-85110000D01*
X157193160Y-85110000D01*
X157150000Y-85104318D01*
X156993236Y-85124956D01*
X156993232Y-85124957D01*
X156847164Y-85185461D01*
X156847158Y-85185464D01*
X156721720Y-85281716D01*
X156721716Y-85281720D01*
X156625464Y-85407158D01*
X156625461Y-85407164D01*
X156564957Y-85553232D01*
X156564956Y-85553236D01*
X156544318Y-85710000D01*
X155893159Y-85710000D01*
X156006762Y-85695044D01*
X156152841Y-85634536D01*
X156278282Y-85538282D01*
X156374536Y-85412841D01*
X156435044Y-85266762D01*
X156455682Y-85110000D01*
X156435044Y-84953238D01*
X156424262Y-84927209D01*
X156374538Y-84807164D01*
X156374535Y-84807158D01*
X156278282Y-84681718D01*
X156152841Y-84585464D01*
X156152835Y-84585461D01*
X156006767Y-84524957D01*
X156006763Y-84524956D01*
X155850000Y-84504318D01*
X155693236Y-84524956D01*
X155693232Y-84524957D01*
X155547164Y-84585461D01*
X155547158Y-84585464D01*
X155421720Y-84681716D01*
X155421716Y-84681720D01*
X155325464Y-84807158D01*
X155325461Y-84807164D01*
X155264957Y-84953232D01*
X155264956Y-84953236D01*
X155244318Y-85110000D01*
X154593160Y-85110000D01*
X154550000Y-85104318D01*
X154393236Y-85124956D01*
X154393232Y-85124957D01*
X154247164Y-85185461D01*
X154247158Y-85185464D01*
X154121720Y-85281716D01*
X154121716Y-85281720D01*
X154025464Y-85407158D01*
X154025461Y-85407164D01*
X153964957Y-85553232D01*
X153964956Y-85553236D01*
X153944318Y-85710000D01*
X153359117Y-85710000D01*
X153396762Y-85705044D01*
X153542841Y-85644536D01*
X153668282Y-85548282D01*
X153764536Y-85422841D01*
X153825044Y-85276762D01*
X153845682Y-85120000D01*
X153825044Y-84963238D01*
X153821239Y-84954053D01*
X153764538Y-84817164D01*
X153764535Y-84817158D01*
X153668282Y-84691718D01*
X153542841Y-84595464D01*
X153542835Y-84595461D01*
X153396767Y-84534957D01*
X153396763Y-84534956D01*
X153309995Y-84523533D01*
X153240000Y-84514318D01*
X153239999Y-84514318D01*
X153083236Y-84534956D01*
X153083232Y-84534957D01*
X152937164Y-84595461D01*
X152937158Y-84595464D01*
X152811720Y-84691716D01*
X152811716Y-84691720D01*
X152715464Y-84817158D01*
X152715461Y-84817164D01*
X152654957Y-84963232D01*
X152654956Y-84963236D01*
X152634318Y-85120000D01*
X152069118Y-85120000D01*
X151950000Y-85104318D01*
X151793236Y-85124956D01*
X151793232Y-85124957D01*
X151647164Y-85185461D01*
X151647158Y-85185464D01*
X151521720Y-85281716D01*
X151521716Y-85281720D01*
X151425464Y-85407158D01*
X151425461Y-85407164D01*
X151364957Y-85553232D01*
X151364956Y-85553236D01*
X151344318Y-85710000D01*
X150798939Y-85710000D01*
X150932841Y-85654536D01*
X151058282Y-85558282D01*
X151154536Y-85432841D01*
X151215044Y-85286762D01*
X151235682Y-85130000D01*
X151215044Y-84973238D01*
X151210899Y-84963232D01*
X151157341Y-84833932D01*
X151154536Y-84827159D01*
X151058282Y-84701718D01*
X150932841Y-84605464D01*
X150932835Y-84605461D01*
X150786767Y-84544957D01*
X150786763Y-84544956D01*
X150630000Y-84524318D01*
X150473236Y-84544956D01*
X150473232Y-84544957D01*
X150327164Y-84605461D01*
X150327158Y-84605464D01*
X150201720Y-84701716D01*
X150201716Y-84701720D01*
X150105464Y-84827158D01*
X150105461Y-84827164D01*
X150044957Y-84973232D01*
X150044956Y-84973236D01*
X150024318Y-85130000D01*
X149449118Y-85130000D01*
X149373159Y-85120000D01*
X149330000Y-85114318D01*
X149329999Y-85114318D01*
X149173236Y-85134956D01*
X149173232Y-85134957D01*
X149027164Y-85195461D01*
X149027158Y-85195464D01*
X148901720Y-85291716D01*
X148901716Y-85291720D01*
X148805464Y-85417158D01*
X148805461Y-85417164D01*
X148744957Y-85563232D01*
X148744956Y-85563236D01*
X148724318Y-85720000D01*
X148083159Y-85720000D01*
X148196762Y-85705044D01*
X148342841Y-85644536D01*
X148468282Y-85548282D01*
X148564536Y-85422841D01*
X148625044Y-85276762D01*
X148645682Y-85120000D01*
X148625044Y-84963238D01*
X148621239Y-84954053D01*
X148564538Y-84817164D01*
X148564535Y-84817158D01*
X148468282Y-84691718D01*
X148342841Y-84595464D01*
X148342835Y-84595461D01*
X148196767Y-84534957D01*
X148196763Y-84534956D01*
X148040000Y-84514318D01*
X147883236Y-84534956D01*
X147883232Y-84534957D01*
X147737164Y-84595461D01*
X147737158Y-84595464D01*
X147611720Y-84691716D01*
X147611716Y-84691720D01*
X147515464Y-84817158D01*
X147515461Y-84817164D01*
X147454957Y-84963232D01*
X147454956Y-84963236D01*
X147434318Y-85120000D01*
X146033049Y-85120000D01*
X146015044Y-84983238D01*
X146010899Y-84973232D01*
X145954538Y-84837164D01*
X145954535Y-84837158D01*
X145948381Y-84829138D01*
X145858282Y-84711718D01*
X145732841Y-84615464D01*
X145732835Y-84615461D01*
X145586767Y-84554957D01*
X145586763Y-84554956D01*
X145463930Y-84538785D01*
X145430000Y-84534318D01*
X145429999Y-84534318D01*
X145273236Y-84554956D01*
X145273232Y-84554957D01*
X145127164Y-84615461D01*
X145127158Y-84615464D01*
X145001720Y-84711716D01*
X145001716Y-84711720D01*
X144905464Y-84837158D01*
X144905461Y-84837164D01*
X144844957Y-84983232D01*
X144844956Y-84983236D01*
X144824982Y-85134956D01*
X144824318Y-85140000D01*
X144249118Y-85140000D01*
X144173159Y-85130000D01*
X144130000Y-85124318D01*
X144129999Y-85124318D01*
X143973236Y-85144956D01*
X143973232Y-85144957D01*
X143827164Y-85205461D01*
X143827158Y-85205464D01*
X143701720Y-85301716D01*
X143701716Y-85301720D01*
X143605464Y-85427158D01*
X143605461Y-85427164D01*
X143544957Y-85573232D01*
X143544956Y-85573236D01*
X143524318Y-85730000D01*
X143023081Y-85730000D01*
X143132841Y-85684536D01*
X143258282Y-85588282D01*
X143354536Y-85462841D01*
X143415044Y-85316762D01*
X143435682Y-85160000D01*
X143415044Y-85003238D01*
X143406757Y-84983232D01*
X143354538Y-84857164D01*
X143354535Y-84857158D01*
X143339193Y-84837164D01*
X143258282Y-84731718D01*
X143132841Y-84635464D01*
X143132835Y-84635461D01*
X142986767Y-84574957D01*
X142986763Y-84574956D01*
X142830000Y-84554318D01*
X142673236Y-84574956D01*
X142673232Y-84574957D01*
X142527164Y-84635461D01*
X142527158Y-84635464D01*
X142401720Y-84731716D01*
X142401716Y-84731720D01*
X142305464Y-84857158D01*
X142305461Y-84857164D01*
X142244957Y-85003232D01*
X142244956Y-85003236D01*
X142226298Y-85144957D01*
X142224318Y-85160000D01*
X141659118Y-85160000D01*
X141540000Y-85144318D01*
X141383236Y-85164956D01*
X141383232Y-85164957D01*
X141237164Y-85225461D01*
X141237158Y-85225464D01*
X141111720Y-85321716D01*
X141111716Y-85321720D01*
X141015464Y-85447158D01*
X141015461Y-85447164D01*
X140954957Y-85593232D01*
X140954956Y-85593236D01*
X140934318Y-85750000D01*
X140502223Y-85750000D01*
X140504029Y-84963961D01*
X140504053Y-84963904D01*
X140504053Y-84954228D01*
X140504129Y-84952883D01*
X140507023Y-84927209D01*
X140518842Y-84837486D01*
X140519981Y-84832704D01*
X140535808Y-84787478D01*
X140536026Y-84786910D01*
X140562264Y-84723573D01*
X140564108Y-84720005D01*
X140591728Y-84676051D01*
X140592349Y-84675159D01*
X140632561Y-84622755D01*
X140633576Y-84621598D01*
X140671598Y-84583576D01*
X140672755Y-84582561D01*
X140725159Y-84542349D01*
X140726051Y-84541728D01*
X140770005Y-84514108D01*
X140773573Y-84512264D01*
X140836910Y-84486026D01*
X140837478Y-84485808D01*
X140882704Y-84469981D01*
X140887486Y-84468842D01*
X140977169Y-84457027D01*
X140994283Y-84455098D01*
X141002884Y-84454129D01*
X141004229Y-84454053D01*
X141013260Y-84454053D01*
X141014468Y-84453550D01*
X156467429Y-84450500D01*
X158999326Y-84450500D01*
X159000671Y-84450576D01*
G37*
%TD.AperFunction*%
%TD*%
M02*
