%TF.GenerationSoftware,KiCad,Pcbnew,7.0.7*%
%TF.CreationDate,2024-03-24T16:17:57-04:00*%
%TF.ProjectId,AkiraFlex,416b6972-6146-46c6-9578-2e6b69636164,rev?*%
%TF.SameCoordinates,Original*%
%TF.FileFunction,Soldermask,Top*%
%TF.FilePolarity,Negative*%
%FSLAX46Y46*%
G04 Gerber Fmt 4.6, Leading zero omitted, Abs format (unit mm)*
G04 Created by KiCad (PCBNEW 7.0.7) date 2024-03-24 16:17:57*
%MOMM*%
%LPD*%
G01*
G04 APERTURE LIST*
G04 Aperture macros list*
%AMRoundRect*
0 Rectangle with rounded corners*
0 $1 Rounding radius*
0 $2 $3 $4 $5 $6 $7 $8 $9 X,Y pos of 4 corners*
0 Add a 4 corners polygon primitive as box body*
4,1,4,$2,$3,$4,$5,$6,$7,$8,$9,$2,$3,0*
0 Add four circle primitives for the rounded corners*
1,1,$1+$1,$2,$3*
1,1,$1+$1,$4,$5*
1,1,$1+$1,$6,$7*
1,1,$1+$1,$8,$9*
0 Add four rect primitives between the rounded corners*
20,1,$1+$1,$2,$3,$4,$5,0*
20,1,$1+$1,$4,$5,$6,$7,0*
20,1,$1+$1,$6,$7,$8,$9,0*
20,1,$1+$1,$8,$9,$2,$3,0*%
G04 Aperture macros list end*
%ADD10C,1.400000*%
%ADD11R,0.400000X0.900000*%
%ADD12C,0.800000*%
%ADD13RoundRect,0.225000X0.250000X-0.225000X0.250000X0.225000X-0.250000X0.225000X-0.250000X-0.225000X0*%
%ADD14R,2.150000X2.300000*%
G04 APERTURE END LIST*
D10*
%TO.C,TP15*%
X143490000Y-92370000D03*
%TD*%
D11*
%TO.C,RN3*%
X157950000Y-90250000D03*
X157150000Y-90250000D03*
X156350000Y-90250000D03*
X155550000Y-90250000D03*
X157950000Y-88550000D03*
X157150000Y-88550000D03*
X156350000Y-88550000D03*
X155550000Y-88550000D03*
%TD*%
D12*
%TO.C,TP12*%
X158440000Y-85110000D03*
%TD*%
D13*
%TO.C,C3*%
X153650000Y-90245000D03*
X153650000Y-88695000D03*
%TD*%
D12*
%TO.C,TP2*%
X142830000Y-85160000D03*
%TD*%
D10*
%TO.C,TP17*%
X146760000Y-92390000D03*
%TD*%
D12*
%TO.C,TP1*%
X141540000Y-85750000D03*
%TD*%
%TO.C,TP5*%
X148040000Y-85120000D03*
%TD*%
%TO.C,TP18*%
X146730000Y-85730000D03*
%TD*%
D11*
%TO.C,RN1*%
X144950000Y-90250000D03*
X144150000Y-90250000D03*
X143350000Y-90250000D03*
X142550000Y-90250000D03*
X144950000Y-88550000D03*
X144150000Y-88550000D03*
X143350000Y-88550000D03*
X142550000Y-88550000D03*
%TD*%
D10*
%TO.C,TP16*%
X156490000Y-92380000D03*
%TD*%
D12*
%TO.C,TP6*%
X149330000Y-85720000D03*
%TD*%
%TO.C,TP3*%
X144130000Y-85730000D03*
%TD*%
%TO.C,TP10*%
X155850000Y-85110000D03*
%TD*%
%TO.C,TP7*%
X151950000Y-85710000D03*
%TD*%
%TO.C,TP9*%
X154550000Y-85710000D03*
%TD*%
D11*
%TO.C,RN2*%
X151690000Y-90250000D03*
X150890000Y-90250000D03*
X150090000Y-90250000D03*
X149290000Y-90250000D03*
X151690000Y-88550000D03*
X150890000Y-88550000D03*
X150090000Y-88550000D03*
X149290000Y-88550000D03*
%TD*%
D14*
%TO.C,TP13*%
X136630000Y-88920000D03*
%TD*%
D13*
%TO.C,C4*%
X160050000Y-90245000D03*
X160050000Y-88695000D03*
%TD*%
D12*
%TO.C,TP11*%
X157150000Y-85710000D03*
%TD*%
D14*
%TO.C,TP14*%
X162760000Y-88810000D03*
%TD*%
D13*
%TO.C,C2*%
X147100000Y-90245000D03*
X147100000Y-88695000D03*
%TD*%
D12*
%TO.C,TP4*%
X145430000Y-85140000D03*
%TD*%
%TO.C,TP8*%
X153240000Y-85120000D03*
%TD*%
%TO.C,REF\u002A\u002A*%
X150630000Y-85130000D03*
%TD*%
D13*
%TO.C,C1*%
X140450000Y-90245000D03*
X140450000Y-88695000D03*
%TD*%
M02*
